<?xml version="1.0" encoding="UTF-8"?>
<svg xmlns="http://www.w3.org/2000/svg" viewBox="0 0 920 682" width="920" height="682" preserveAspectRatio="xMidYMid meet" role="img" aria-label="Two layers with different failure modes, one policy surface. Defaults shown. An operator policy can override the action for any type. Source: taxonomy/taxonomy.yaml" font-family="Inter, -apple-system, BlinkMacSystemFont, 'Segoe UI', Roboto, 'Helvetica Neue', Arial, sans-serif">
  <title>Two layers with different failure modes, one policy surface.</title>
  <desc>Two layers with different failure modes, one policy surface. Defaults shown. An operator policy can override the action for any type. Source: taxonomy/taxonomy.yaml</desc>
  <rect x="0" y="0" width="920" height="682" fill="#FBFAF8"/>
  <text x="24" y="34" font-size="11" letter-spacing="0.16em" fill="#7C7A76">CLOSED v0.1 TAXONOMY · 24 ENTITY TYPES</text>
  <text x="24" y="64" font-size="19" font-weight="400" letter-spacing="-0.01em" fill="#111111">Two layers with different failure modes, one policy surface.</text>
  <rect x="24.0" y="80" width="91.6" height="22" rx="11" fill="#F0EFEC"/>
  <text x="69.8" y="95" font-size="11" text-anchor="middle" fill="#7C7A76">general · 13</text>
  <rect x="127.6" y="80" width="207.6" height="22" rx="11" fill="#F7DFE0"/>
  <text x="231.4" y="95" font-size="11" text-anchor="middle" fill="#B3171D">KVKK art. 6 special category · 8</text>
  <rect x="347.2" y="80" width="80.0" height="22" rx="11" fill="#111111"/>
  <text x="387.2" y="95" font-size="11" text-anchor="middle" fill="#FBFAF8">secret · 3</text>
  <rect x="24" y="122" width="428" height="522" rx="16" fill="#FFFFFF" stroke="#E7E5DF" stroke-width="1"/>
  <text x="44" y="150" font-size="11" letter-spacing="0.16em" fill="#7C7A76">LAYER 0</text>
  <text x="44" y="176" font-size="15.5" font-weight="500" letter-spacing="-0.01em" fill="#111111">Deterministic validators</text>
  <text x="44" y="195" font-size="11" fill="#7C7A76" text-anchor="start">Checksum and format rules. No model involved.</text>
  <line x1="44" y1="208" x2="432" y2="208" stroke="#E7E5DF" stroke-width="1"/>
  <text x="44" y="237.5" font-family="ui-monospace, SFMono-Regular, 'SF Mono', Menlo, Consolas, 'Liberation Mono', monospace" font-size="12.5" fill="#111111">TR_TCKN</text>
  <rect x="256" y="223" width="104" height="20" rx="10" fill="#F0EFEC"/>
  <text x="308" y="237" font-size="10.5" text-anchor="middle" fill="#7C7A76">general</text>
  <text x="432" y="237" font-size="11" text-anchor="end" fill="#7C7A76">mask</text>
  <rect x="32" y="250" width="412" height="34" rx="8" fill="#F6F5F2"/>
  <text x="44" y="271.5" font-family="ui-monospace, SFMono-Regular, 'SF Mono', Menlo, Consolas, 'Liberation Mono', monospace" font-size="12.5" fill="#111111">TR_VKN</text>
  <rect x="256" y="257" width="104" height="20" rx="10" fill="#F0EFEC"/>
  <text x="308" y="271" font-size="10.5" text-anchor="middle" fill="#7C7A76">general</text>
  <text x="432" y="271" font-size="11" text-anchor="end" fill="#7C7A76">mask</text>
  <text x="44" y="305.5" font-family="ui-monospace, SFMono-Regular, 'SF Mono', Menlo, Consolas, 'Liberation Mono', monospace" font-size="12.5" fill="#111111">TR_IBAN</text>
  <rect x="256" y="291" width="104" height="20" rx="10" fill="#F0EFEC"/>
  <text x="308" y="305" font-size="10.5" text-anchor="middle" fill="#7C7A76">general</text>
  <text x="432" y="305" font-size="11" text-anchor="end" fill="#7C7A76">mask</text>
  <rect x="32" y="318" width="412" height="34" rx="8" fill="#F6F5F2"/>
  <text x="44" y="339.5" font-family="ui-monospace, SFMono-Regular, 'SF Mono', Menlo, Consolas, 'Liberation Mono', monospace" font-size="12.5" fill="#111111">IBAN_OTHER</text>
  <rect x="256" y="325" width="104" height="20" rx="10" fill="#F0EFEC"/>
  <text x="308" y="339" font-size="10.5" text-anchor="middle" fill="#7C7A76">general</text>
  <text x="432" y="339" font-size="11" text-anchor="end" fill="#7C7A76">mask</text>
  <text x="44" y="373.5" font-family="ui-monospace, SFMono-Regular, 'SF Mono', Menlo, Consolas, 'Liberation Mono', monospace" font-size="12.5" fill="#111111">CREDIT_CARD</text>
  <rect x="256" y="359" width="104" height="20" rx="10" fill="#F0EFEC"/>
  <text x="308" y="373" font-size="10.5" text-anchor="middle" fill="#7C7A76">general</text>
  <text x="432" y="373" font-size="11" text-anchor="end" fill="#7C7A76">block</text>
  <rect x="32" y="386" width="412" height="34" rx="8" fill="#F6F5F2"/>
  <text x="44" y="407.5" font-family="ui-monospace, SFMono-Regular, 'SF Mono', Menlo, Consolas, 'Liberation Mono', monospace" font-size="12.5" fill="#111111">TR_PHONE</text>
  <rect x="256" y="393" width="104" height="20" rx="10" fill="#F0EFEC"/>
  <text x="308" y="407" font-size="10.5" text-anchor="middle" fill="#7C7A76">general</text>
  <text x="432" y="407" font-size="11" text-anchor="end" fill="#7C7A76">mask</text>
  <text x="44" y="441.5" font-family="ui-monospace, SFMono-Regular, 'SF Mono', Menlo, Consolas, 'Liberation Mono', monospace" font-size="12.5" fill="#111111">TR_PLATE</text>
  <rect x="256" y="427" width="104" height="20" rx="10" fill="#F0EFEC"/>
  <text x="308" y="441" font-size="10.5" text-anchor="middle" fill="#7C7A76">general</text>
  <text x="432" y="441" font-size="11" text-anchor="end" fill="#7C7A76">mask</text>
  <rect x="32" y="454" width="412" height="34" rx="8" fill="#F6F5F2"/>
  <text x="44" y="475.5" font-family="ui-monospace, SFMono-Regular, 'SF Mono', Menlo, Consolas, 'Liberation Mono', monospace" font-size="12.5" fill="#111111">TR_SGK</text>
  <rect x="256" y="461" width="104" height="20" rx="10" fill="#F0EFEC"/>
  <text x="308" y="475" font-size="10.5" text-anchor="middle" fill="#7C7A76">general</text>
  <text x="432" y="475" font-size="11" text-anchor="end" fill="#7C7A76">mask</text>
  <text x="44" y="509.5" font-family="ui-monospace, SFMono-Regular, 'SF Mono', Menlo, Consolas, 'Liberation Mono', monospace" font-size="12.5" fill="#111111">EMAIL</text>
  <rect x="256" y="495" width="104" height="20" rx="10" fill="#F0EFEC"/>
  <text x="308" y="509" font-size="10.5" text-anchor="middle" fill="#7C7A76">general</text>
  <text x="432" y="509" font-size="11" text-anchor="end" fill="#7C7A76">mask</text>
  <rect x="32" y="522" width="412" height="34" rx="8" fill="#F6F5F2"/>
  <text x="44" y="543.5" font-family="ui-monospace, SFMono-Regular, 'SF Mono', Menlo, Consolas, 'Liberation Mono', monospace" font-size="12.5" fill="#111111">SECRET_API_KEY</text>
  <rect x="256" y="529" width="104" height="20" rx="10" fill="#111111"/>
  <text x="308" y="543" font-size="10.5" text-anchor="middle" fill="#FBFAF8">secret</text>
  <text x="432" y="543" font-size="11" text-anchor="end" fill="#7C7A76">block</text>
  <text x="44" y="577.5" font-family="ui-monospace, SFMono-Regular, 'SF Mono', Menlo, Consolas, 'Liberation Mono', monospace" font-size="12.5" fill="#111111">SECRET_JWT</text>
  <rect x="256" y="563" width="104" height="20" rx="10" fill="#111111"/>
  <text x="308" y="577" font-size="10.5" text-anchor="middle" fill="#FBFAF8">secret</text>
  <text x="432" y="577" font-size="11" text-anchor="end" fill="#7C7A76">block</text>
  <rect x="32" y="590" width="412" height="34" rx="8" fill="#F6F5F2"/>
  <text x="44" y="611.5" font-family="ui-monospace, SFMono-Regular, 'SF Mono', Menlo, Consolas, 'Liberation Mono', monospace" font-size="12.5" fill="#111111">SECRET_PRIVATE_KEY</text>
  <rect x="256" y="597" width="104" height="20" rx="10" fill="#111111"/>
  <text x="308" y="611" font-size="10.5" text-anchor="middle" fill="#FBFAF8">secret</text>
  <text x="432" y="611" font-size="11" text-anchor="end" fill="#7C7A76">block</text>
  <rect x="468" y="122" width="428" height="522" rx="16" fill="#FFFFFF" stroke="#E7E5DF" stroke-width="1"/>
  <text x="488" y="150" font-size="11" letter-spacing="0.16em" fill="#7C7A76">LAYER 1</text>
  <text x="488" y="176" font-size="15.5" font-weight="500" letter-spacing="-0.01em" fill="#111111">hushmark-tr model</text>
  <text x="488" y="195" font-size="11" fill="#7C7A76" text-anchor="start">Semantic spans proposed by the model; policy decides.</text>
  <line x1="488" y1="208" x2="876" y2="208" stroke="#E7E5DF" stroke-width="1"/>
  <text x="488" y="237.5" font-family="ui-monospace, SFMono-Regular, 'SF Mono', Menlo, Consolas, 'Liberation Mono', monospace" font-size="12.5" fill="#111111">PERSON</text>
  <rect x="700" y="223" width="104" height="20" rx="10" fill="#F0EFEC"/>
  <text x="752" y="237" font-size="10.5" text-anchor="middle" fill="#7C7A76">general</text>
  <text x="876" y="237" font-size="11" text-anchor="end" fill="#7C7A76">mask</text>
  <rect x="476" y="250" width="412" height="34" rx="8" fill="#F6F5F2"/>
  <text x="488" y="271.5" font-family="ui-monospace, SFMono-Regular, 'SF Mono', Menlo, Consolas, 'Liberation Mono', monospace" font-size="12.5" fill="#111111">ADDRESS</text>
  <rect x="700" y="257" width="104" height="20" rx="10" fill="#F0EFEC"/>
  <text x="752" y="271" font-size="10.5" text-anchor="middle" fill="#7C7A76">general</text>
  <text x="876" y="271" font-size="11" text-anchor="end" fill="#7C7A76">mask</text>
  <text x="488" y="305.5" font-family="ui-monospace, SFMono-Regular, 'SF Mono', Menlo, Consolas, 'Liberation Mono', monospace" font-size="12.5" fill="#111111">ORG</text>
  <rect x="700" y="291" width="104" height="20" rx="10" fill="#F0EFEC"/>
  <text x="752" y="305" font-size="10.5" text-anchor="middle" fill="#7C7A76">general</text>
  <text x="876" y="305" font-size="11" text-anchor="end" fill="#7C7A76">allow</text>
  <rect x="476" y="318" width="412" height="34" rx="8" fill="#F6F5F2"/>
  <text x="488" y="339.5" font-family="ui-monospace, SFMono-Regular, 'SF Mono', Menlo, Consolas, 'Liberation Mono', monospace" font-size="12.5" fill="#111111">DOB</text>
  <rect x="700" y="325" width="104" height="20" rx="10" fill="#F0EFEC"/>
  <text x="752" y="339" font-size="10.5" text-anchor="middle" fill="#7C7A76">general</text>
  <text x="876" y="339" font-size="11" text-anchor="end" fill="#7C7A76">mask</text>
  <text x="488" y="373.5" font-family="ui-monospace, SFMono-Regular, 'SF Mono', Menlo, Consolas, 'Liberation Mono', monospace" font-size="12.5" fill="#111111">HEALTH</text>
  <rect x="700" y="359" width="104" height="20" rx="10" fill="#F7DFE0"/>
  <text x="752" y="373" font-size="10.5" text-anchor="middle" fill="#B3171D">special</text>
  <text x="876" y="373" font-size="11" text-anchor="end" fill="#7C7A76">block</text>
  <rect x="476" y="386" width="412" height="34" rx="8" fill="#F6F5F2"/>
  <text x="488" y="407.5" font-family="ui-monospace, SFMono-Regular, 'SF Mono', Menlo, Consolas, 'Liberation Mono', monospace" font-size="12.5" fill="#111111">RELIGION</text>
  <rect x="700" y="393" width="104" height="20" rx="10" fill="#F7DFE0"/>
  <text x="752" y="407" font-size="10.5" text-anchor="middle" fill="#B3171D">special</text>
  <text x="876" y="407" font-size="11" text-anchor="end" fill="#7C7A76">block</text>
  <text x="488" y="441.5" font-family="ui-monospace, SFMono-Regular, 'SF Mono', Menlo, Consolas, 'Liberation Mono', monospace" font-size="12.5" fill="#111111">ETHNICITY</text>
  <rect x="700" y="427" width="104" height="20" rx="10" fill="#F7DFE0"/>
  <text x="752" y="441" font-size="10.5" text-anchor="middle" fill="#B3171D">special</text>
  <text x="876" y="441" font-size="11" text-anchor="end" fill="#7C7A76">block</text>
  <rect x="476" y="454" width="412" height="34" rx="8" fill="#F6F5F2"/>
  <text x="488" y="475.5" font-family="ui-monospace, SFMono-Regular, 'SF Mono', Menlo, Consolas, 'Liberation Mono', monospace" font-size="12.5" fill="#111111">POLITICAL</text>
  <rect x="700" y="461" width="104" height="20" rx="10" fill="#F7DFE0"/>
  <text x="752" y="475" font-size="10.5" text-anchor="middle" fill="#B3171D">special</text>
  <text x="876" y="475" font-size="11" text-anchor="end" fill="#7C7A76">block</text>
  <text x="488" y="509.5" font-family="ui-monospace, SFMono-Regular, 'SF Mono', Menlo, Consolas, 'Liberation Mono', monospace" font-size="12.5" fill="#111111">SEXUAL_LIFE</text>
  <rect x="700" y="495" width="104" height="20" rx="10" fill="#F7DFE0"/>
  <text x="752" y="509" font-size="10.5" text-anchor="middle" fill="#B3171D">special</text>
  <text x="876" y="509" font-size="11" text-anchor="end" fill="#7C7A76">block</text>
  <rect x="476" y="522" width="412" height="34" rx="8" fill="#F6F5F2"/>
  <text x="488" y="543.5" font-family="ui-monospace, SFMono-Regular, 'SF Mono', Menlo, Consolas, 'Liberation Mono', monospace" font-size="12.5" fill="#111111">CRIMINAL</text>
  <rect x="700" y="529" width="104" height="20" rx="10" fill="#F7DFE0"/>
  <text x="752" y="543" font-size="10.5" text-anchor="middle" fill="#B3171D">special</text>
  <text x="876" y="543" font-size="11" text-anchor="end" fill="#7C7A76">block</text>
  <text x="488" y="577.5" font-family="ui-monospace, SFMono-Regular, 'SF Mono', Menlo, Consolas, 'Liberation Mono', monospace" font-size="12.5" fill="#111111">BIOMETRIC_REF</text>
  <rect x="700" y="563" width="104" height="20" rx="10" fill="#F7DFE0"/>
  <text x="752" y="577" font-size="10.5" text-anchor="middle" fill="#B3171D">special</text>
  <text x="876" y="577" font-size="11" text-anchor="end" fill="#7C7A76">block</text>
  <rect x="476" y="590" width="412" height="34" rx="8" fill="#F6F5F2"/>
  <text x="488" y="611.5" font-family="ui-monospace, SFMono-Regular, 'SF Mono', Menlo, Consolas, 'Liberation Mono', monospace" font-size="12.5" fill="#111111">UNION</text>
  <rect x="700" y="597" width="104" height="20" rx="10" fill="#F7DFE0"/>
  <text x="752" y="611" font-size="10.5" text-anchor="middle" fill="#B3171D">special</text>
  <text x="876" y="611" font-size="11" text-anchor="end" fill="#7C7A76">block</text>
  <text x="24" y="668" font-size="11" fill="#7C7A76" text-anchor="start">Defaults shown. An operator policy can override the action for any type. Source: taxonomy/taxonomy.yaml</text>
</svg>
